# This file uses centimeters as units for non-parametric coordinates.

mtllib Controls.mtl
g default
v -0.384289 -0.047192 0.851294
v 0.237938 2.281813 0.851294
v -0.384289 -0.047192 -0.851294
v 0.237938 2.281813 -0.851294
v 0.492555 -0.006089 0.851294
v 0.492555 -0.006089 -0.851294
v -0.384289 -0.047192 0.851294
v 0.237938 2.281813 0.851294
v 0.237938 2.281813 -0.851294
v -0.384289 -0.047192 -0.851294
v 0.492555 -0.006089 0.851294
v 0.492555 -0.006089 -0.851294
v -0.393950 -0.044611 0.851294
v 0.241997 2.335750 0.851294
v 0.241997 2.335750 -0.851294
v -0.393950 -0.044611 -0.851294
v 0.502494 -0.004983 0.851294
v 0.502494 -0.004983 -0.851294
vt 0.610230 -0.000295
vt 0.833274 0.428069
vt 0.969645 0.427819
vt 0.009972 -0.000087
vt 0.833342 0.239618
vt 0.969224 0.239614
vt 0.612856 -0.002300
vt 0.007365 -0.002038
vt 0.005264 0.850841
vt 0.832476 0.423810
vt 0.969801 0.239161
vt 0.832755 0.239158
vt 0.832484 0.423818
vt 0.612841 -0.002259
vt 0.007409 -0.002016
vt 0.005308 0.850828
vt 0.832764 0.239161
vt 0.969798 0.239165
vt 0.610956 0.870212
vt 0.008809 0.869649
vt 0.970429 0.423565
vt 0.614467 0.851377
vt 0.695082 0.427991
vt 0.834317 0.239158
vt 0.970164 0.046693
vt 0.970220 0.239118
vt 0.834261 0.046733
vt 0.614491 0.851420
vt 0.830977 0.244233
vt 0.695073 0.244240
vt 0.970437 0.423573
vt 0.830985 0.427985
vn -0.966115 0.258111 0.000000
vn -0.966115 0.258111 0.000000
vn -0.966115 0.258111 0.000000
vn -0.966115 0.258111 0.000000
vn 0.993864 0.110606 0.000000
vn 0.993864 0.110606 0.000000
vn 0.993864 0.110606 0.000000
vn 0.993864 0.110606 0.000000
vn 0.966115 -0.258111 0.000000
vn 0.966115 -0.258111 0.000000
vn 0.966115 -0.258111 0.000000
vn 0.966115 -0.258111 0.000000
vn -0.993864 -0.110606 0.000000
vn -0.993864 -0.110606 0.000000
vn -0.993864 -0.110606 0.000000
vn -0.993864 -0.110606 0.000000
vn 0.000000 0.000000 0.000000
vn 0.000000 0.000000 0.000000
vn 0.000000 0.000000 0.000000
vn 0.000000 0.000000 0.000000
vn 0.000000 0.000000 0.000000
vn 0.000000 0.000000 0.000000
vn 0.000000 0.000000 0.000000
vn 0.000000 0.000000 0.000000
vn 0.000000 0.000000 0.000000
vn 0.000000 0.000000 0.000000
vn 0.000000 0.000000 0.000000
vn 0.000000 0.000000 0.000000
vn 0.000000 0.000000 0.000000
vn 0.000000 0.000000 0.000000
vn 0.000000 0.000000 0.000000
vn 0.000000 0.000000 0.000000
vn 0.000000 0.000000 0.000000
vn 0.000000 0.000000 0.000000
vn 0.000000 0.000000 0.000000
vn 0.000000 0.000000 0.000000
vn 0.000000 0.000000 0.000000
vn 0.000000 0.000000 0.000000
vn 0.000000 0.000000 0.000000
vn 0.000000 0.000000 0.000000
vn -0.000000 0.000000 1.000000
vn 0.000000 -0.000000 1.000000
vn 0.000000 -0.000000 1.000000
vn -0.000000 0.000000 1.000000
vn 0.000000 -0.000000 -1.000000
vn -0.000000 0.000000 -1.000000
vn -0.000000 0.000000 -1.000000
vn 0.000000 -0.000000 -1.000000
vn -0.258114 -0.966114 0.000000
vn -0.258114 -0.966114 0.000000
vn -0.258114 -0.966114 0.000000
vn -0.258114 -0.966114 0.000000
vn 0.000000 -0.000001 1.000000
vn 0.000000 -0.000001 1.000000
vn 0.110604 -0.993864 0.000000
vn 0.110604 -0.993864 0.000000
vn 0.110604 -0.993864 0.000000
vn 0.110604 -0.993864 0.000000
vn 0.000000 -0.000001 -1.000000
vn 0.000000 -0.000001 -1.000000
s off
g pPlane4
usemtl initialShadingGroup
f 13/1/1 14/19/2 15/20/3 16/4/4
f 15/3/5 14/2/6 17/5/7 18/6/8
f 1/27/9 3/25/10 4/26/11 2/24/12
f 4/23/13 6/30/14 5/29/15 2/32/16
f 1/7/17 2/28/18 8/22/19 7/14/20
f 4/9/21 3/8/22 10/15/23 9/16/24
f 3/8/25 1/7/26 7/14/27 10/15/28
f 2/10/29 5/12/30 11/17/31 8/13/32
f 5/12/33 6/11/34 12/18/35 11/17/36
f 6/11/37 4/31/38 9/21/39 12/18/40
s 1
f 7/14/41 8/22/42 14/19/43 13/1/44
s 2
f 9/16/45 10/15/46 16/4/47 15/20/48
s off
f 10/15/49 7/14/50 13/1/51 16/4/52
s 1
f 8/13/42 11/17/53 17/5/54 14/2/43
s off
f 11/17/55 12/18/56 18/6/57 17/5/58
s 2
f 12/18/59 9/21/45 15/3/48 18/6/60
