# This file uses centimeters as units for non-parametric coordinates.

mtllib CounterLonger.mtl
g default
v -38.392399 39.516701 164.823273
v 39.530602 39.516701 164.823273
v 39.530602 39.516701 -138.465286
v -38.392399 39.516701 -138.465286
v -39.530602 31.707300 -138.465286
v -39.530602 31.707300 164.823273
v -39.530602 38.378502 164.823273
v -39.530602 38.378502 -138.465286
v -33.391998 31.173901 -63.358398
v -33.333000 31.173901 -70.326500
v -33.391998 31.173901 -1.969400
v -5.026300 21.886400 -1.969400
v -5.026300 21.886400 -63.358398
v -5.026300 -2.435300 -63.358398
v -5.026300 -2.435300 -1.969400
v -33.333000 31.173901 63.358398
v -33.333000 21.886400 63.358398
v -33.333000 31.173901 70.326500
v -33.333000 31.173901 1.969400
v -33.333000 21.886400 1.969400
v -33.333000 -2.435300 1.969400
v -33.333000 -5.907400 1.969400
v -33.333000 -39.516701 -63.358398
v -33.333000 -39.516701 -70.326500
v -33.333000 -39.516701 -1.969400
v -5.026300 -30.229099 -1.969400
v -5.026300 -5.907400 -1.969400
v -5.026300 -5.907400 -63.358398
v -5.026300 -30.229099 -63.358398
v -33.333000 -39.516701 63.358398
v -33.333000 -39.516701 70.326500
v -33.333000 -30.229099 63.358398
v -33.333000 -39.516701 1.969400
v -33.333000 -30.229099 1.969400
v -37.195801 2.034100 10.896600
v -37.195801 2.034100 8.011700
v -37.195801 -10.376800 8.011700
v -37.195801 -10.376800 10.896600
v -33.333000 21.159901 2.803400
v -33.333000 21.159901 62.524502
v -33.333000 -29.502600 2.803400
v -33.333000 -29.502600 62.524502
v -34.145401 20.096701 4.023700
v -34.145401 20.096701 61.304100
v -34.145401 -28.439400 61.304100
v -34.145401 -28.439400 4.023700
v -34.145401 2.034100 8.011700
v -34.145401 2.034100 10.896600
v -34.145401 -10.376800 8.011700
v -34.145401 -10.376800 10.896600
v -30.265594 30.569099 164.823273
v -38.392399 30.569099 164.823273
v -38.392399 30.569099 -138.465286
v -30.265594 30.569099 -138.465286
v -33.333000 31.173901 -130.472992
v -33.333000 -39.516701 -130.472992
v -33.333000 31.173901 -137.469803
v -33.333000 21.886400 -137.469803
v -33.333000 -2.435300 -137.469803
v -33.333000 -5.907400 -137.469803
v -33.333000 -30.229099 -137.469803
v -33.333000 -39.516701 -137.469803
v -33.333000 31.173901 155.057770
v -33.333000 -39.516701 155.057770
v -33.333000 21.886400 163.913910
v -33.333000 31.173901 163.913910
v -33.333000 -39.516701 163.913910
v -33.333000 -30.229099 163.913910
v -33.333000 22.754339 -69.458565
v -33.333000 -3.303238 -69.458565
v -33.338497 22.751577 -64.223595
v -32.467804 21.886400 -63.358398
v -33.333000 -3.303238 -64.226334
v -32.465061 -2.435300 -63.358398
v -32.467804 21.886400 -1.969400
v -33.338497 22.751577 -1.104205
v -33.333000 -5.039462 -64.226334
v -32.465061 -5.907400 -63.358398
v -33.333000 -5.039462 -1.101462
v -32.465061 -5.907400 -1.969400
v -32.465061 -2.435300 -1.969400
v -33.333000 -3.303238 -1.101462
v -33.333000 -31.097038 -64.226334
v -32.465061 -30.229099 -63.358398
v -33.333000 -5.039462 -69.458565
v -33.333000 -31.097038 -69.458565
v -32.465061 -30.229099 -1.969400
v -33.333000 -31.097038 -1.101462
v -33.333000 22.754339 69.458565
v -33.333000 -31.097038 69.458565
v -33.333000 22.754339 -131.340927
v -33.333000 -3.303238 -131.340927
v -33.333000 -5.039462 -131.340927
v -33.333000 -31.097038 -131.340927
v -33.333000 22.754339 155.925705
v -33.333000 -31.097038 155.925705
vt 0.999914 0.059400
vt 1.000000 0.316300
vt 0.000105 0.316633
vt 0.000020 0.059733
vt 0.000011 0.032433
vt 0.999905 0.032100
vt 0.999913 0.054093
vt 0.000018 0.054426
vt 0.665187 0.550968
vt 0.461154 0.316480
vt 0.463935 0.517866
vt 0.662452 0.517871
vt 0.463902 0.349571
vt 0.662415 0.349623
vt 0.468559 0.513652
vt 0.657829 0.513679
vt 0.657818 0.353833
vt 0.468499 0.353765
vt 0.346439 0.391338
vt 0.337574 0.391338
vt 0.337574 0.347439
vt 0.346439 0.347439
vt 0.388479 0.347425
vt 0.396865 0.347425
vt 0.396865 0.357585
vt 0.388479 0.357585
vt 0.438393 0.347425
vt 0.438393 0.357585
vt 0.446779 0.347425
vt 0.446779 0.357585
vt 0.346951 0.347425
vt 0.346951 0.357585
vt 0.999895 0.000000
vt 0.999904 0.026793
vt 0.000009 0.027126
vt 0.000000 0.000333
vt 0.245147 0.519996
vt 0.448150 0.520175
vt 0.245126 0.439534
vt 0.448137 0.439480
vt 0.386509 0.721505
vt 0.383616 0.641258
vt 0.386479 0.641257
vt 0.245122 0.428047
vt 0.448136 0.427959
vt 0.245094 0.347585
vt 0.995990 0.721637
vt 0.993123 0.641390
vt 0.995987 0.641389
vt 0.448109 0.347266
vt 0.245154 0.550712
vt 0.224976 0.522862
vt 0.242287 0.522857
vt 0.448151 0.550902
vt 0.224952 0.436669
vt 0.224950 0.430926
vt 0.242253 0.430919
vt 0.242255 0.436663
vt 0.000021 0.721650
vt 0.000000 0.641401
vt 0.090563 0.721616
vt 0.090499 0.550835
vt 0.293049 0.550759
vt 0.090533 0.641368
vt 0.383655 0.721506
vt 0.293083 0.641292
vt 0.293147 0.812082
vt 0.090597 0.812158
vt 0.293113 0.721540
vt 0.665214 0.520269
vt 0.685389 0.523043
vt 0.688261 0.550881
vt 0.461162 0.439475
vt 0.451006 0.430837
vt 0.451010 0.523053
vt 0.461177 0.550955
vt 0.451007 0.436598
vt 0.461170 0.520261
vt 0.242223 0.344717
vt 0.224920 0.344731
vt 0.222039 0.316889
vt 0.245082 0.316868
vt 0.609508 0.641407
vt 0.700045 0.721651
vt 0.609512 0.721655
vt 0.700049 0.812184
vt 0.902594 0.721642
vt 0.902598 0.812174
vt 0.993127 0.721637
vt 0.902590 0.641394
vt 0.902586 0.550861
vt 0.700041 0.641403
vt 0.700037 0.550870
vt 0.665168 0.316526
vt 0.685345 0.344442
vt 0.665178 0.347227
vt 0.461135 0.347174
vt 0.448107 0.316539
vt 0.461160 0.427950
vt 0.450979 0.344374
vt 0.222114 0.550707
vt 0.023138 0.316975
vt 0.023215 0.550754
vt 0.000077 0.550761
vt 0.020336 0.522911
vt 0.000067 0.520047
vt 0.020308 0.436736
vt 0.000041 0.439614
vt 0.020277 0.344820
vt 0.000011 0.347697
vt 0.000000 0.316983
vt 0.020306 0.430995
vt 0.000038 0.428131
vt 0.968471 0.550581
vt 0.688211 0.316603
vt 0.971331 0.522735
vt 0.997747 0.519855
vt 0.997757 0.550570
vt 0.968410 0.316729
vt 0.997697 0.316723
vt 0.971287 0.344574
vt 0.997704 0.347438
vn -0.382690 0.923877 -0.000000
vn 0.000000 1.000000 0.000000
vn 0.000000 1.000000 0.000000
vn -0.382690 0.923877 -0.000000
vn -0.923877 -0.382690 0.000000
vn -0.923877 -0.382690 0.000000
vn -0.923877 0.382690 -0.000000
vn -0.923877 0.382690 -0.000000
vn -1.000000 0.000000 0.000000
vn -1.000000 0.000000 0.000000
vn -1.000000 0.000000 0.000000
vn -1.000000 0.000000 0.000000
vn -0.999963 0.000000 0.008600
vn -1.000000 0.000000 -0.000000
vn -1.000000 0.000000 -0.000000
vn -1.000000 0.000000 -0.000000
vn -1.000000 0.000000 0.000000
vn -1.000000 0.000000 0.000000
vn -1.000000 0.000000 0.000000
vn -1.000000 0.000000 0.000000
vn -1.000000 0.000000 -0.000000
vn -1.000000 0.000000 -0.000000
vn -1.000000 0.000000 -0.000000
vn -1.000000 0.000000 -0.000000
vn -0.577350 0.577350 0.577350
vn -0.577350 0.577350 -0.577350
vn -0.577350 -0.577350 -0.577350
vn -0.577350 -0.577350 0.577350
vn -0.992191 0.088199 -0.088199
vn -0.992191 0.088199 0.088199
vn -1.000000 0.000000 -0.000000
vn -0.992191 -0.088199 -0.088199
vn -1.000000 0.000000 -0.000000
vn -0.992191 -0.088199 0.088199
vn -0.794586 0.607151 0.000000
vn -0.794587 0.607151 0.000000
vn -0.794586 0.607151 0.000000
vn -0.794586 0.607151 0.000000
vn -0.794587 -0.607151 0.000000
vn -0.794586 -0.607151 0.000000
vn -0.794587 -0.607151 0.000000
vn -0.794586 -0.607151 0.000000
vn -0.832426 0.000000 0.554136
vn -0.832426 0.000000 0.554136
vn -0.832426 0.000000 0.554136
vn -0.832426 0.000000 0.554136
vn -0.832407 0.000000 -0.554165
vn -0.832407 0.000000 -0.554165
vn -0.832407 0.000000 -0.554165
vn -0.832407 0.000000 -0.554165
vn -0.904534 0.301511 0.301511
vn -0.904534 0.301511 -0.301511
vn -0.904534 -0.301511 -0.301511
vn -0.904534 -0.301511 0.301511
vn 0.000000 -1.000000 0.000000
vn -0.382690 -0.923877 0.000000
vn -0.382690 -0.923877 0.000000
vn 0.000000 -1.000000 0.000000
vn -0.936317 0.248305 0.248305
vn -0.936317 0.248305 -0.248305
vn -0.936317 -0.248305 -0.248305
vn -0.936317 -0.248305 0.248305
vn -0.704856 -0.709350 0.000000
vn -0.704856 -0.709350 0.000000
vn -0.704856 -0.709350 0.000000
vn -0.704856 -0.709350 0.000000
vn -0.705983 -0.000154 0.708228
vn -0.705983 -0.000154 0.708228
vn -0.705983 -0.000154 0.708228
vn -0.705983 -0.000154 0.708228
vn -0.707107 0.707107 0.000000
vn -0.707107 0.707107 0.000000
vn -0.707107 0.707107 0.000000
vn -0.707107 0.707107 0.000000
vn -0.705986 -0.000154 -0.708226
vn -0.705986 -0.000154 -0.708226
vn -0.705986 -0.000154 -0.708226
vn -0.705986 -0.000154 -0.708226
vn -0.707107 -0.707107 0.000000
vn -0.707107 -0.707107 0.000000
vn -0.707107 -0.707107 0.000000
vn -0.707107 -0.707107 0.000000
vn -0.707104 0.000000 0.707109
vn -0.707104 0.000000 0.707109
vn -0.707104 0.000000 0.707109
vn -0.707104 0.000000 0.707109
vn -0.707107 0.000000 -0.707107
vn -0.707106 0.000000 -0.707107
vn -0.707107 0.000000 -0.707107
vn -0.707107 0.000000 -0.707107
vn -0.707107 0.707106 0.000000
vn -0.707107 0.707106 0.000000
vn -0.707107 0.707106 0.000000
vn -0.707107 0.707106 0.000000
vn -0.999981 -0.006101 -0.000419
vn -1.000000 -0.000256 -0.000426
vn -1.000000 -0.000082 -0.000158
vn -0.999988 -0.004846 -0.000530
vn -1.000000 -0.000008 -0.000038
vn -1.000000 -0.000056 -0.000281
vn -0.999981 -0.006167 0.000436
vn -0.999985 -0.005436 0.000670
vn -1.000000 0.000000 0.000000
vn -1.000000 0.000000 0.000000
vn -1.000000 0.000000 0.000000
vn -1.000000 -0.000038 0.000312
vn 0.000000 0.000000 1.000000
vn 0.000000 0.000000 1.000000
vn 0.000000 0.000000 1.000000
vn 0.000000 0.000000 1.000000
vn 0.000000 1.000000 0.000000
vn 0.000000 1.000000 0.000000
vn 0.000000 1.000000 0.000000
vn 0.000000 1.000000 0.000000
vn 0.000000 0.000000 -1.000000
vn 0.000000 0.000000 -1.000000
vn 0.000000 0.000000 -1.000000
vn 0.000000 0.000000 -1.000000
vn 0.000000 -1.000000 0.000000
vn 0.000000 -1.000000 0.000000
vn 0.000000 -1.000000 0.000000
vn 0.000000 -1.000000 0.000000
vn -1.000000 -0.000000 0.000000
vn -1.000000 -0.000000 0.000000
vn -1.000000 0.000000 0.000000
vn -1.000000 0.000000 0.000000
vn -1.000000 0.000000 0.000000
vn -1.000000 0.000000 0.000000
vn -1.000000 0.000000 0.000000
vn -1.000000 0.000000 0.000000
vn 0.000000 0.000000 1.000000
vn 0.000000 0.000000 1.000000
vn 0.000000 0.000000 1.000000
vn 0.000000 0.000000 1.000000
vn 0.000000 -1.000000 0.000000
vn 0.000000 -1.000000 0.000000
vn 0.000000 -1.000000 0.000000
vn 0.000000 -1.000000 0.000000
vn 0.000000 0.000000 -1.000000
vn 0.000000 0.000000 -1.000000
vn 0.000000 0.000000 -1.000000
vn 0.000000 0.000000 -1.000000
vn 0.000000 1.000000 0.000000
vn 0.000000 1.000000 0.000000
vn 0.000000 1.000000 0.000000
vn 0.000000 1.000000 0.000000
vn -1.000000 0.000000 0.000000
vn -1.000000 0.000000 0.000000
vn -1.000000 0.000000 0.000000
vn -1.000000 0.000000 0.000000
vn -1.000000 0.000000 0.000000
vn -1.000000 0.000000 0.000000
vn -1.000000 0.000000 0.000000
vn -1.000000 0.000000 0.000000
vn -1.000000 0.000000 0.000000
vn -1.000000 0.000000 0.000000
vn -1.000000 0.000000 0.000000
vn -1.000000 0.000000 0.000000
vn -1.000000 0.000000 0.000000
vn -1.000000 0.000000 0.000000
vn -1.000000 0.000000 0.000000
vn -1.000000 0.000000 0.000000
vn -1.000000 0.000000 0.000000
vn -1.000000 0.000000 0.000000
vn -1.000000 0.000000 0.000000
vn -1.000000 0.000000 0.000000
vn -1.000000 0.000000 0.000000
vn -1.000000 0.000000 0.000000
s 1
g counter:Box003
usemtl initialShadingGroup
f 1/1/1 2/2/2 3/3/3 4/4/4
f 5/5/5 6/6/6 7/7/7 8/8/8
s off
f 12/69/9 13/61/10 14/64/11 15/66/12
s 3
f 19/76/13 20/78/14 17/70/15 16/9/16
s off
f 26/90/17 27/87/18 28/84/19 29/92/20
s 3
f 33/10/21 30/94/22 32/96/23 34/97/24
s 5
f 35/19/25 36/20/26 37/21/27 38/22/28
s 3
f 17/70/15 20/78/14 39/11/29 40/12/30
f 22/99/31 41/13/32 39/11/29 21/73/33
f 34/97/24 32/96/23 42/14/34 41/13/32
f 32/96/23 17/70/15 40/12/30 42/14/34
s off
f 40/12/35 39/11/36 43/15/37 44/16/38
f 41/13/39 42/14/40 45/17/41 46/18/42
f 42/14/43 40/12/44 44/16/45 45/17/46
f 41/13/47 46/18/48 43/15/49 39/11/50
s 3
f 22/99/31 34/97/24 41/13/32
f 39/11/29 20/78/14 21/73/33
s 5
f 48/23/51 47/24/52 36/25/26 35/26/25
f 47/24/52 49/27/53 37/28/27 36/25/26
f 49/27/53 50/29/54 38/30/28 37/28/27
f 50/31/54 48/23/51 35/26/25 38/32/28
s 1
f 51/33/55 52/34/56 53/35/57 54/36/58
f 1/1/1 4/4/4 8/8/8 7/7/7
f 6/6/6 5/5/5 53/35/57 52/34/56
s off
f 44/16/59 43/15/60 46/18/61 45/17/62
f 71/53/63 72/37/64 75/38/65 76/75/66
f 72/37/67 71/53/68 73/58/69 74/39/70
f 74/39/71 73/58/72 82/77/73 81/40/74
f 76/41/75 75/65/76 81/42/77 82/43/78
f 77/57/79 78/44/80 80/45/81 79/74/82
f 78/44/83 77/57/84 83/79/85 84/46/86
f 79/47/87 80/89/88 87/48/89 88/49/90
f 84/46/91 83/79/92 88/100/93 87/50/94
s 3
f 9/51/95 10/101/96 69/52/97 71/53/98
f 71/53/98 69/52/97 70/55/99 73/58/100
f 11/54/101 9/51/95 71/53/98 76/75/102
f 70/55/99 85/56/103 77/57/104 73/58/100
f 73/58/100 77/57/104 79/74/105 82/77/106
s off
f 72/59/107 74/60/108 14/64/109 13/61/110
f 74/62/111 81/63/112 15/66/113 14/64/114
f 81/42/115 75/65/116 12/69/117 15/66/118
f 75/67/119 72/68/120 13/61/121 12/69/122
s 3
f 16/9/16 17/70/15 89/71/123 18/72/124
f 21/73/33 82/77/106 79/74/105 22/99/31
f 11/54/101 76/75/102 20/78/14 19/76/13
f 76/75/102 82/77/106 21/73/33 20/78/14
f 23/82/125 83/79/126 86/80/127 24/81/128
f 83/79/126 77/57/104 85/56/103 86/80/127
f 25/98/129 88/100/130 83/79/126 23/82/125
s off
f 84/83/131 29/92/132 28/84/133 78/85/134
f 78/86/135 28/84/136 27/87/137 80/88/138
f 80/89/139 27/87/140 26/90/141 87/48/142
f 87/91/143 26/90/144 29/92/145 84/93/146
s 3
f 30/94/22 31/115/147 90/95/148 32/96/23
f 32/96/23 90/95/148 89/71/123 17/70/15
f 33/10/21 34/97/24 88/100/130 25/98/129
f 34/97/24 22/99/31 79/74/105 88/100/130
f 69/52/97 10/101/96 55/103/149 91/105/150
f 85/56/103 70/55/99 92/107/151 93/112/152
f 24/81/128 86/80/127 94/109/153 56/102/154
f 91/105/150 55/103/149 57/104/155 58/106/156
f 92/107/151 91/105/150 58/106/156 59/108/157
f 93/112/152 92/107/151 59/108/157 60/113/158
f 56/102/154 94/109/153 61/110/159 62/111/160
f 94/109/153 93/112/152 60/113/158 61/110/159
f 18/72/124 89/71/123 95/116/161 63/114/162
f 90/95/148 31/115/147 64/119/163 96/121/164
f 63/114/162 95/116/161 65/117/165 66/118/166
f 96/121/164 64/119/163 67/120/167 68/122/168
f 95/116/161 96/121/164 68/122/168 65/117/165
f 69/52/97 91/105/150 92/107/151 70/55/99
f 85/56/103 93/112/152 94/109/153 86/80/127
f 89/71/123 90/95/148 96/121/164 95/116/161
