# 3ds Max Wavefront OBJ Exporter v0.99 - (c)2007 guruware
# File Created: 08.11.2025 16:12:57

mtllib counter.mtl

#
# object Box003
#

v  -38.3924 39.5167 74.7527
v  39.5306 39.5167 74.7527
v  39.5306 39.5167 -74.7527
v  -38.3924 39.5167 -74.7527
v  -39.5306 31.7073 -74.7527
v  -39.5306 31.7073 74.7527
v  -39.5306 38.3785 74.7527
v  -39.5306 38.3785 -74.7527
v  -33.3920 31.1739 -63.3584
v  -33.3330 31.1739 -70.3265
v  -33.3330 21.8864 -70.3265
v  -33.3330 21.8864 -63.3584
v  -33.3330 -2.4353 -70.3265
v  -33.3330 -2.4353 -63.3584
v  -33.3920 31.1739 -1.9694
v  -33.3330 21.8864 -1.9694
v  -5.0263 21.8864 -1.9694
v  -5.0263 21.8864 -63.3584
v  -5.0263 -2.4353 -63.3584
v  -5.0263 -2.4353 -1.9694
v  -33.3330 -5.9074 -70.3265
v  -33.3330 -5.9074 -63.3584
v  -33.3330 -5.9074 -1.9694
v  -33.3330 -2.4353 -1.9694
v  -33.3330 31.1739 63.3584
v  -33.3330 21.8864 63.3584
v  -33.3330 21.8864 70.3265
v  -33.3330 31.1739 70.3265
v  -33.3330 31.1739 1.9694
v  -33.3330 21.8864 1.9694
v  -33.3330 -2.4353 1.9694
v  -33.3330 -5.9074 1.9694
v  -33.3330 -39.5167 -63.3584
v  -33.3330 -30.2291 -63.3584
v  -33.3330 -30.2291 -70.3265
v  -33.3330 -39.5167 -70.3265
v  -33.3330 -39.5167 -1.9694
v  -33.3330 -30.2291 -1.9694
v  -5.0263 -30.2291 -1.9694
v  -5.0263 -5.9074 -1.9694
v  -5.0263 -5.9074 -63.3584
v  -5.0263 -30.2291 -63.3584
v  -33.3330 -39.5167 63.3584
v  -33.3330 -39.5167 70.3265
v  -33.3330 -30.2291 70.3265
v  -33.3330 -30.2291 63.3584
v  -33.3330 -39.5167 1.9694
v  -33.3330 -30.2291 1.9694
v  -37.1958 2.0341 10.8966
v  -37.1958 2.0341 8.0117
v  -37.1958 -10.3768 8.0117
v  -37.1958 -10.3768 10.8966
v  -33.3330 21.1599 2.8034
v  -33.3330 21.1599 62.5245
v  -33.3330 -29.5026 2.8034
v  -33.3330 -29.5026 62.5245
v  -34.1454 20.0967 4.0237
v  -34.1454 20.0967 61.3041
v  -34.1454 -28.4394 61.3041
v  -34.1454 -28.4394 4.0237
v  -34.1454 2.0341 8.0117
v  -34.1454 2.0341 10.8966
v  -34.1454 -10.3768 8.0117
v  -34.1454 -10.3768 10.8966
v  39.5306 30.5691 74.7527
v  -38.3924 30.5691 74.7527
v  -38.3924 30.5691 -74.7527
v  39.5306 30.5691 -74.7527
# 68 vertices

vn -0.3827 0.9239 -0.0000
vn 0.0000 1.0000 -0.0000
vn -0.9239 -0.3827 -0.0000
vn -0.9239 0.3827 -0.0000
vn -1.0000 -0.0064 -0.0049
vn -1.0000 0.0000 -0.0097
vn -1.0000 0.0000 -0.0000
vn -0.9035 -0.3050 0.3012
vn -0.9045 0.3015 0.3015
vn -0.9999 -0.0064 0.0086
vn -0.9035 -0.3050 -0.3012
vn -0.5774 -0.5774 -0.5774
vn -0.5774 -0.5774 0.5774
vn -0.5774 0.5774 0.5774
vn -0.5774 0.5774 -0.5774
vn -0.9045 -0.3015 0.3015
vn -0.9045 -0.3015 -0.3015
vn -0.9045 0.3015 -0.3015
vn -1.0000 0.0000 0.0086
vn -0.9922 0.0882 -0.0882
vn -0.9922 0.0882 0.0882
vn -0.9922 -0.0882 -0.0882
vn -0.9922 -0.0882 0.0882
vn -0.9363 0.2483 -0.2483
vn -0.9363 0.2483 0.2483
vn -0.9363 -0.2483 0.2483
vn -0.9363 -0.2483 -0.2483
vn 0.0000 -1.0000 -0.0000
vn -0.3827 -0.9239 -0.0000
# 29 vertex normals

vt 0.5414 0.3653 0.0000
vt 0.5414 0.6886 0.0000
vt 0.0010 0.6886 0.0000
vt 0.0010 0.3653 0.0000
vt 0.0010 0.3309 0.0000
vt 0.5414 0.3309 0.0000
vt 0.5414 0.3586 0.0000
vt 0.0010 0.3586 0.0000
vt 0.0262 0.9829 0.0000
vt 0.0010 0.9829 0.0000
vt 0.0010 0.9444 0.0000
vt 0.0262 0.9444 0.0000
vt 0.0010 0.8434 0.0000
vt 0.0262 0.8434 0.0000
vt 0.2482 0.9829 0.0000
vt 0.2482 0.9444 0.0000
vt 0.8816 0.5560 0.0000
vt 0.6597 0.5560 0.0000
vt 0.6597 0.4551 0.0000
vt 0.8816 0.4551 0.0000
vt 0.0010 0.8290 0.0000
vt 0.0262 0.8290 0.0000
vt 0.2482 0.8290 0.0000
vt 0.2482 0.8434 0.0000
vt 0.5423 0.5560 0.0000
vt 0.5423 0.4551 0.0000
vt 0.6597 0.3377 0.0000
vt 0.8816 0.3377 0.0000
vt 0.9990 0.4551 0.0000
vt 0.9990 0.5560 0.0000
vt 0.8816 0.6734 0.0000
vt 0.6597 0.6734 0.0000
vt 0.4845 0.9829 0.0000
vt 0.4845 0.9444 0.0000
vt 0.5097 0.9444 0.0000
vt 0.5097 0.9829 0.0000
vt 0.2625 0.9829 0.0000
vt 0.2625 0.9444 0.0000
vt 0.2624 0.8434 0.0000
vt 0.2624 0.8290 0.0000
vt 0.0262 0.6895 0.0000
vt 0.0262 0.7280 0.0000
vt 0.0010 0.7280 0.0000
vt 0.0010 0.6895 0.0000
vt 0.2482 0.6895 0.0000
vt 0.2482 0.7280 0.0000
vt 0.8816 0.1184 0.0000
vt 0.8816 0.2193 0.0000
vt 0.6597 0.2193 0.0000
vt 0.6597 0.1184 0.0000
vt 0.5423 0.1184 0.0000
vt 0.5423 0.2193 0.0000
vt 0.6597 0.3368 0.0000
vt 0.8816 0.3368 0.0000
vt 0.9990 0.2193 0.0000
vt 0.9990 0.1184 0.0000
vt 0.8816 0.0010 0.0000
vt 0.6597 0.0010 0.0000
vt 0.4845 0.6895 0.0000
vt 0.5097 0.6895 0.0000
vt 0.5097 0.7280 0.0000
vt 0.4845 0.7280 0.0000
vt 0.2625 0.6895 0.0000
vt 0.2625 0.7280 0.0000
vt 0.0420 0.7822 0.0000
vt 0.0316 0.7822 0.0000
vt 0.0316 0.7307 0.0000
vt 0.0420 0.7307 0.0000
vt 0.2654 0.9415 0.0000
vt 0.4817 0.9415 0.0000
vt 0.2654 0.7309 0.0000
vt 0.4817 0.7309 0.0000
vt 0.2702 0.9367 0.0000
vt 0.4769 0.9367 0.0000
vt 0.4769 0.7357 0.0000
vt 0.2702 0.7357 0.0000
vt 0.2845 0.8619 0.0000
vt 0.2948 0.8619 0.0000
vt 0.2845 0.8105 0.0000
vt 0.2948 0.8105 0.0000
vt 0.0831 0.8455 0.0000
vt 0.0935 0.8455 0.0000
vt 0.0935 0.8581 0.0000
vt 0.0831 0.8581 0.0000
vt 0.1450 0.8455 0.0000
vt 0.1450 0.8581 0.0000
vt 0.1554 0.8455 0.0000
vt 0.1554 0.8581 0.0000
vt 0.0316 0.8455 0.0000
vt 0.0316 0.8581 0.0000
vt 0.5414 0.0010 0.0000
vt 0.5414 0.3243 0.0000
vt 0.0010 0.3243 0.0000
vt 0.0010 0.0010 0.0000
# 94 texture coords

o Box003
g Box003
usemtl 01___Default
s 1
f 1/1/1 2/2/2 3/3/2 4/4/1 
s 2
f 5/5/3 6/6/3 7/7/4 8/8/4 
s 1
f 9/9/5 10/10/6 11/11/7 12/12/8 
f 12/12/8 11/11/7 13/13/7 14/14/9 
f 15/15/10 9/9/5 12/12/8 16/16/11 
f 17/17/12 18/18/13 19/19/14 20/20/15 
f 13/13/7 21/21/7 22/22/16 14/14/9 
f 14/14/9 22/22/16 23/23/17 24/24/18 
s 2
f 12/25/8 14/26/9 19/19/14 18/18/13 
s 4
f 14/27/9 24/28/18 20/20/15 19/19/14 
s 2
f 24/29/18 16/30/11 17/17/12 20/20/15 
s 4
f 16/31/11 12/32/8 18/18/13 17/17/12 
s 1
f 25/33/7 26/34/7 27/35/7 28/36/7 
f 29/37/19 30/38/7 26/34/7 25/33/7 
f 31/39/7 24/24/18 23/23/17 32/40/7 
f 15/15/10 16/16/11 30/38/7 29/37/19 
f 16/16/11 24/24/18 31/39/7 30/38/7 
f 33/41/7 34/42/9 35/43/7 36/44/7 
f 34/42/9 22/22/16 21/21/7 35/43/7 
f 37/45/7 38/46/18 34/42/9 33/41/7 
f 39/47/15 40/48/12 41/49/13 42/50/14 
s 2
f 34/51/9 42/50/14 41/49/13 22/52/16 
s 4
f 22/53/16 41/49/13 40/48/12 23/54/17 
s 2
f 23/55/17 40/48/12 39/47/15 38/56/18 
s 4
f 38/57/18 39/47/15 42/50/14 34/58/9 
s 1
f 43/59/7 44/60/7 45/61/7 46/62/7 
f 46/62/7 45/61/7 27/35/7 26/34/7 
f 47/63/7 43/59/7 46/62/7 48/64/7 
f 49/65/14 50/66/15 51/67/12 52/68/13 
f 47/63/7 48/64/7 38/46/18 37/45/7 
f 48/64/7 32/40/7 23/23/17 38/46/18 
f 26/34/7 30/38/7 53/69/20 54/70/21 
f 32/40/7 55/71/22 53/69/20 31/39/7 
f 48/64/7 46/62/7 56/72/23 55/71/22 
f 46/62/7 26/34/7 54/70/21 56/72/23 
f 54/70/21 53/69/20 57/73/24 58/74/25 
f 55/71/22 56/72/23 59/75/26 60/76/27 
f 56/72/23 54/70/21 58/74/25 59/75/26 
f 55/71/22 60/76/27 57/73/24 53/69/20 
f 32/40/7 48/64/7 55/71/22 
f 53/69/20 30/38/7 31/39/7 
f 58/74/25 57/73/24 61/77/18 62/78/9 
f 57/73/24 60/76/27 63/79/17 61/77/18 
f 60/76/27 59/75/26 64/80/16 63/79/17 
f 59/75/26 58/74/25 62/78/9 64/80/16 
s 2
f 62/81/9 61/82/18 50/83/15 49/84/14 
s 4
f 61/82/18 63/85/17 51/86/12 50/83/15 
s 2
f 63/85/17 64/87/16 52/88/13 51/86/12 
s 4
f 64/89/16 62/81/9 49/84/14 52/90/13 
s 1
f 65/91/28 66/92/29 67/93/29 68/94/28 
s 2
f 1/1/1 4/4/1 8/8/4 7/7/4 
f 6/6/3 5/5/3 67/93/29 66/92/29 
# 50 polygons - 2 triangles

