# 3ds Max Wavefront OBJ Exporter v0.99 - (c)2007 guruware
# File Created: 08.11.2025 16:13:32

mtllib cutting board.mtl

#
# object Box001
#

v  -29.9930 0.0000 22.3777
v  -29.9930 0.0000 -31.1037
v  5.6565 0.0000 -31.1037
v  5.6565 0.0000 22.3777
v  -27.2414 3.9750 18.7379
v  2.9048 3.9750 18.7379
v  2.9048 3.9750 -27.4639
v  -27.2414 3.9750 -27.4639
v  -30.4983 0.6497 23.0460
v  6.1617 0.6497 23.0460
v  6.1617 3.3253 23.0460
v  -30.4983 3.3253 23.0460
v  6.1617 0.6497 -31.7720
v  6.1617 3.3253 -31.7720
v  -30.4983 0.6497 -31.7720
v  -30.4983 3.3253 -31.7720
v  -29.9930 3.9750 22.3777
v  5.6565 3.9750 22.3777
v  3.7066 3.9750 19.7984
v  -28.0431 3.9750 19.7984
v  5.6565 3.9750 -31.1037
v  3.7066 3.9750 -28.5244
v  -29.9930 3.9750 -31.1037
v  -28.0431 3.9750 -28.5244
v  -28.0431 3.2420 19.7984
v  3.7066 3.2420 19.7984
v  2.9048 3.2420 18.7379
v  -27.2414 3.2420 18.7379
v  3.7066 3.2420 -28.5244
v  2.9048 3.2420 -27.4639
v  -28.0431 3.2420 -28.5244
v  -27.2414 3.2420 -27.4639
# 32 vertices

vn -0.0192 -0.9997 0.0170
vn -0.0192 -0.9997 -0.0170
vn 0.0192 -0.9997 -0.0170
vn 0.0192 -0.9997 0.0170
vn -0.0189 0.9997 0.0163
vn 0.0189 0.9997 0.0163
vn 0.0189 0.9997 -0.0163
vn -0.0189 0.9997 -0.0163
vn -0.7373 -0.1768 0.6521
vn 0.7373 -0.1768 0.6521
vn 0.7373 0.1768 0.6521
vn -0.7373 0.1768 0.6521
vn 0.7373 -0.1768 -0.6521
vn 0.7373 0.1768 -0.6521
vn -0.7373 -0.1768 -0.6521
vn -0.7373 0.1768 -0.6521
vn -0.0852 0.9935 0.0752
vn 0.0852 0.9935 0.0752
vn -0.0736 0.9952 -0.0640
vn 0.0736 0.9952 -0.0640
vn 0.0852 0.9935 -0.0752
vn -0.0736 0.9952 0.0640
vn -0.0852 0.9935 -0.0752
vn 0.0736 0.9952 0.0640
vn 0.1886 0.9683 -0.1639
vn -0.1886 0.9683 -0.1639
vn 0.1808 0.9710 0.1561
vn -0.1808 0.9710 0.1561
vn -0.1886 0.9683 0.1639
vn 0.1808 0.9710 -0.1561
vn 0.1886 0.9683 0.1639
vn -0.1808 0.9710 -0.1561
# 32 vertex normals

vt 0.0163 0.6121 0.0000
vt 0.0163 0.0991 0.0000
vt 0.4686 0.0991 0.0000
vt 0.4686 0.6121 0.0000
vt 0.5317 0.1224 0.0000
vt 0.9144 0.1224 0.0000
vt 0.9144 0.5661 0.0000
vt 0.5317 0.5661 0.0000
vt 0.5297 0.0435 0.0000
vt 0.9934 0.0428 0.0000
vt 0.9934 0.0692 0.0000
vt 0.5305 0.0700 0.0000
vt 0.0038 0.0039 0.0000
vt 0.5283 0.0038 0.0000
vt 0.5275 0.0303 0.0000
vt 0.0038 0.0303 0.0000
vt 0.9935 0.0065 0.0000
vt 0.9920 0.0330 0.0000
vt 0.0038 0.0435 0.0000
vt 0.0051 0.0700 0.0000
vt 0.4949 0.0855 0.0000
vt 0.9512 0.0855 0.0000
vt 0.9270 0.1097 0.0000
vt 0.5191 0.1097 0.0000
vt 0.9512 0.6029 0.0000
vt 0.9270 0.5787 0.0000
vt 0.4949 0.6029 0.0000
vt 0.5191 0.5787 0.0000
vt 0.5211 0.1117 0.0000
vt 0.9250 0.1117 0.0000
vt 0.9165 0.1202 0.0000
vt 0.5296 0.1202 0.0000
vt 0.9250 0.5767 0.0000
vt 0.9165 0.5682 0.0000
vt 0.5211 0.5767 0.0000
vt 0.5296 0.5682 0.0000
vt 0.0088 0.6197 0.0000
vt 0.0088 0.0915 0.0000
vt 0.4762 0.0915 0.0000
vt 0.4762 0.6197 0.0000
vt 0.9934 0.0783 0.0000
vt 0.5313 0.0790 0.0000
vt 0.5267 0.0394 0.0000
vt 0.0038 0.0394 0.0000
vt 0.9843 0.0420 0.0000
vt 0.0128 0.0790 0.0000
# 46 texture coords

o Box001
g Box001
usemtl 01___Default
s 1
f 1/1/1 2/2/2 3/3/3 4/4/4 
f 5/5/5 6/6/6 7/7/7 8/8/8 
s 2
f 9/9/9 10/10/10 11/11/11 12/12/12 
s 4
f 10/13/10 13/14/13 14/15/14 11/16/11 
s 2
f 13/14/13 15/17/15 16/18/16 14/15/14 
s 4
f 15/19/15 9/9/9 12/12/12 16/20/16 
s 1
f 17/21/17 18/22/18 19/23/19 20/24/20 
f 18/22/18 21/25/21 22/26/22 19/23/19 
f 21/25/21 23/27/23 24/28/24 22/26/22 
f 23/27/23 17/21/17 20/24/20 24/28/24 
f 25/29/25 26/30/26 27/31/27 28/32/28 
f 26/30/26 29/33/29 30/34/30 27/31/27 
f 29/33/29 31/35/31 32/36/32 30/34/30 
f 31/35/31 25/29/25 28/32/28 32/36/32 
s 2
f 20/24/20 19/23/19 26/30/26 25/29/25 
s 4
f 19/23/19 22/26/22 29/33/29 26/30/26 
s 2
f 22/26/22 24/28/24 31/35/31 29/33/29 
s 4
f 24/28/24 20/24/20 25/29/25 31/35/31 
s 2
f 6/6/6 5/5/5 28/32/28 27/31/27 
s 4
f 5/5/5 8/8/8 32/36/32 28/32/28 
s 2
f 8/8/8 7/7/7 30/34/30 32/36/32 
s 4
f 7/7/7 6/6/6 27/31/27 30/34/30 
s 5
f 2/2/2 1/1/1 9/37/9 15/38/15 
s 3
f 3/3/3 2/2/2 15/38/15 13/39/13 
s 5
f 4/4/4 3/3/3 13/39/13 10/40/10 
s 3
f 1/1/1 4/4/4 10/40/10 9/37/9 
f 12/12/12 11/11/11 18/41/18 17/42/17 
s 5
f 11/16/11 14/15/14 21/43/21 18/44/18 
s 3
f 14/15/14 16/18/16 23/45/23 21/43/21 
s 5
f 16/20/16 12/12/12 17/42/17 23/46/23 
# 30 polygons

