# This file uses centimeters as units for non-parametric coordinates.

mtllib knife.mtl
g default
v 0.000000 -4.497740 0.000000
v 0.551614 4.306689 -0.473899
v 0.400956 4.477246 -0.378476
v 0.210698 4.306689 -0.766784
v 0.147495 4.477246 -0.596227
v -0.210698 4.306689 -0.766784
v -0.147495 4.477246 -0.596227
v -0.551614 4.306689 -0.473899
v -0.400956 4.477246 -0.378475
v -0.681832 4.306689 0.000000
v -0.504954 4.477246 0.000000
v -0.551614 4.306689 0.473899
v -0.400956 4.477246 0.378476
v -0.210698 4.306689 0.766784
v -0.147495 4.477246 0.596227
v 0.210698 4.306689 0.766784
v 0.147495 4.477246 0.596227
v 0.551614 4.306689 0.473899
v 0.400956 4.477246 0.378475
v 0.681832 4.306689 -0.000000
v 0.504954 4.477246 -0.000000
v 0.147495 4.477246 -0.596227
v 0.400956 4.477246 -0.378476
v -0.000000 4.477246 -0.000000
v -0.147495 4.477246 -0.596227
v -0.400956 4.477246 -0.378475
v -0.504954 4.477246 0.000000
v -0.400956 4.477246 0.378476
v -0.147495 4.477246 0.596227
v 0.147495 4.477246 0.596227
v 0.400956 4.477246 0.378475
v 0.504954 4.477246 -0.000000
v 0.497472 -4.497740 -0.469531
v 0.680995 -4.286416 -0.585052
v 0.182941 -4.497740 -0.739512
v 0.260116 -4.286242 -0.946630
v -0.182889 -4.497740 -0.739374
v -0.260115 -4.286103 -0.946627
v -0.497316 -4.497740 -0.469432
v -0.680993 -4.286239 -0.585049
v -0.626494 -4.497740 0.000000
v -0.841757 -4.286413 0.000000
v -0.497472 -4.497740 0.469531
v -0.680995 -4.286416 0.585052
v -0.182941 -4.497740 0.739512
v -0.260116 -4.286242 0.946630
v 0.182889 -4.497740 0.739374
v 0.260115 -4.286103 0.946627
v 0.497316 -4.497740 0.469432
v 0.680993 -4.286239 0.585049
v 0.626494 -4.497740 -0.000000
v 0.841756 -4.286413 -0.000000
v -0.015569 15.878847 1.158164
v -0.015569 10.876642 1.403383
v -0.015569 7.959146 1.403383
v -0.015569 5.041648 1.403383
v -0.089844 10.876642 0.842135
v -0.089844 7.959146 0.842135
v -0.089844 5.041648 0.842135
v -0.015569 20.098795 0.302290
v -0.089844 10.876642 0.280888
v -0.089844 7.959146 0.280888
v -0.089844 5.041648 0.280888
v -0.089844 18.784267 0.078429
v -0.089844 10.876642 -0.280360
v -0.089844 7.959146 -0.280360
v -0.089844 5.041648 -0.280360
v -0.089844 2.354990 0.280888
v -0.089844 2.354990 -0.280360
v -0.089844 15.878829 0.855906
v -0.089844 15.878841 0.340154
v -0.089844 15.878833 -0.139638
v 0.058706 15.878829 0.855906
v 0.058706 7.959146 0.842135
v 0.058706 10.876642 0.842135
v 0.058706 5.041648 0.842135
v 0.058706 15.878841 0.340154
v 0.058706 7.959146 0.280888
v 0.058706 10.876642 0.280888
v 0.058706 5.041648 0.280888
v 0.058706 15.878833 -0.139638
v 0.058706 18.784267 0.078429
v 0.058706 7.959146 -0.280360
v 0.058706 10.876642 -0.280360
v 0.058706 5.041648 -0.280360
v 0.058706 2.354990 0.280888
v 0.058706 2.354990 -0.280360
v -0.062671 18.665173 0.310814
v 0.062958 18.666515 0.352133
vt 0.699138 0.837134
vt 0.699138 0.860000
vt 0.648460 0.860000
vt 0.212642 0.860000
vt 0.258559 0.860000
vt 0.302837 0.860000
vt 0.350788 0.860000
vt 0.403258 0.860000
vt 0.455715 0.860000
vt 0.503625 0.860000
vt 0.548343 0.860000
vt 0.596118 0.860000
vt 0.812416 0.376973
vt 0.776201 0.376973
vt 0.745084 0.354365
vt 0.732316 0.315071
vt 0.745084 0.275776
vt 0.776201 0.253169
vt 0.812416 0.253169
vt 0.843532 0.275776
vt 0.856300 0.315071
vt 0.843532 0.354365
vt 0.794308 0.315071
vt 0.843532 0.354365
vt 0.812416 0.376973
vt 0.776201 0.376973
vt 0.745084 0.354365
vt 0.732316 0.315071
vt 0.745084 0.275776
vt 0.776201 0.253169
vt 0.812416 0.253169
vt 0.843532 0.275776
vt 0.856300 0.315071
vt 0.929327 0.065559
vt 0.873186 0.024770
vt 0.803792 0.024771
vt 0.747651 0.065559
vt 0.726206 0.131557
vt 0.747650 0.197555
vt 0.803792 0.238344
vt 0.873186 0.238344
vt 0.929327 0.197555
vt 0.950772 0.131557
vt 0.904847 0.078590
vt 0.862892 0.048135
vt 0.814093 0.048150
vt 0.772151 0.078602
vt 0.754920 0.131557
vt 0.772131 0.184524
vt 0.814086 0.214979
vt 0.862885 0.214964
vt 0.904826 0.184512
vt 0.838489 0.131557
vt 0.922058 0.131557
vt 0.212642 0.011065
vt 0.258559 0.011065
vt 0.212642 0.837134
vt 0.302837 0.011065
vt 0.258559 0.837134
vt 0.350788 0.011065
vt 0.302837 0.837134
vt 0.403258 0.011065
vt 0.350788 0.837134
vt 0.455715 0.011065
vt 0.403258 0.837134
vt 0.503625 0.011065
vt 0.455715 0.837134
vt 0.548343 0.011065
vt 0.503625 0.837134
vt 0.596118 0.011065
vt 0.548343 0.837134
vt 0.648460 0.011065
vt 0.596118 0.837134
vt 0.699138 0.011065
vt 0.648460 0.837134
vt 0.001133 0.537181
vt 0.000000 0.388220
vt 0.028571 0.388095
vt 0.029675 0.536507
vt 0.001403 0.239100
vt 0.030026 0.238957
vt 0.037777 0.789640
vt 0.080766 0.926424
vt 0.096310 1.000000
vt 0.021487 0.790782
vt 0.056867 0.388034
vt 0.057991 0.535756
vt 0.058523 0.236797
vt 0.092494 0.930167
vt 0.085049 0.388260
vt 0.086292 0.534988
vt 0.086889 0.240402
vt 0.107733 0.002665
vt 0.134366 0.008999
vt 0.064655 0.787861
vt 0.089558 0.786368
vt 0.149149 0.788052
vt 0.108570 0.925715
vt 0.122219 0.787067
vt 0.179042 0.535282
vt 0.150476 0.535285
vt 0.149445 0.388731
vt 0.178046 0.388649
vt 0.150459 0.244229
vt 0.178990 0.244011
vt 0.122125 0.535130
vt 0.121036 0.388647
vt 0.122262 0.244835
vt 0.098529 0.930057
vt 0.097280 0.786277
vt 0.093786 0.534911
vt 0.092546 0.388347
vt 0.094345 0.241339
vt 0.141527 0.009188
vt 0.169240 0.015340
vt 0.165465 0.788732
vt 0.029211 0.231611
vt 0.051679 0.234145
vt 0.101243 0.000000
vn 0.851857 0.033305 -0.522715
vn 0.590654 0.722634 -0.359066
vn 0.694125 0.719854 0.000000
vn 0.999467 0.032636 -0.000001
vn 0.358869 0.034723 -0.932742
vn 0.248315 0.729422 -0.637403
vn -0.358866 0.034723 -0.932743
vn -0.248315 0.729422 -0.637403
vn -0.851857 0.033305 -0.522714
vn -0.590653 0.722634 -0.359067
vn -0.999467 0.032636 0.000002
vn -0.694125 0.719854 -0.000000
vn -0.851857 0.033305 0.522715
vn -0.590653 0.722634 0.359067
vn -0.358869 0.034723 0.932742
vn -0.248315 0.729422 0.637404
vn 0.358866 0.034723 0.932743
vn 0.248315 0.729422 0.637404
vn 0.851857 0.033305 0.522714
vn 0.590653 0.722634 0.359067
vn 0.000000 1.000000 0.000001
vn 0.000000 1.000000 -0.000000
vn 0.000000 1.000000 0.000000
vn 0.000000 1.000000 0.000001
vn 0.000000 1.000000 0.000000
vn 0.000000 1.000000 0.000000
vn 0.000000 1.000000 0.000001
vn 0.000000 1.000000 -0.000000
vn 0.000000 1.000000 -0.000000
vn 0.000000 1.000000 -0.000001
vn 0.000000 1.000000 0.000001
vn 0.380349 -0.895396 -0.231519
vn 0.851815 -0.001888 -0.523839
vn 0.999995 -0.003321 -0.000022
vn 0.448184 -0.893941 0.000104
vn 0.159238 -0.898230 -0.409666
vn 0.358413 0.000921 -0.933563
vn -0.159474 -0.898196 -0.409648
vn -0.358354 0.000920 -0.933586
vn -0.380411 -0.895334 -0.231657
vn -0.851825 -0.001894 -0.523823
vn -0.448184 -0.893941 -0.000104
vn -0.999995 -0.003321 0.000022
vn -0.380348 -0.895396 0.231518
vn -0.851815 -0.001888 0.523839
vn -0.159238 -0.898230 0.409666
vn -0.358413 0.000921 0.933563
vn 0.159474 -0.898196 0.409648
vn 0.358354 0.000920 0.933586
vn 0.380411 -0.895334 0.231657
vn 0.851825 -0.001894 0.523823
vn 0.000000 -1.000000 -0.000000
vn -0.000000 0.014441 0.999896
vn 0.000000 0.000000 1.000000
vn 0.997818 0.000000 0.066025
vn 0.997397 0.001053 0.072093
vn 0.000000 -0.016112 0.999870
vn 0.997134 -0.037015 0.065980
vn 0.994696 0.009919 0.102377
vn 0.988302 0.031051 0.149316
vn -0.322831 0.258379 0.910506
vn -0.064688 0.085991 0.994194
vn 1.000000 0.000000 0.000000
vn 1.000000 -0.000000 0.000000
vn 0.996386 -0.017369 0.083145
vn 0.895987 0.050265 -0.441226
vn 0.966712 0.000000 -0.255868
vn 0.962834 0.004798 -0.270052
vn 0.966712 0.000000 -0.255868
vn 0.966712 0.000000 0.255868
vn 0.966712 0.000000 -0.255868
vn 1.000000 -0.000233 -0.000873
vn 0.952067 0.013659 -0.305585
vn -0.995884 0.009706 0.090118
vn -0.991258 0.026798 0.129185
vn -0.999983 0.001505 0.005575
vn -0.997397 0.001053 0.072093
vn -0.997818 0.000000 0.066025
vn -0.997134 -0.037015 0.065980
vn -1.000000 0.000000 0.000000
vn -1.000000 0.000000 0.000000
vn -0.996386 -0.017369 0.083145
vn -0.896782 0.053973 -0.439169
vn -0.953953 0.014934 -0.299584
vn -0.962834 0.004798 -0.270052
vn -0.966712 0.000000 -0.255868
vn -0.966712 0.000000 -0.255868
vn -0.966712 0.000000 -0.255868
vn -0.966712 0.000000 0.255868
s 1
g pCylinder4
usemtl initialShadingGroup
f 2/1/1 3/2/2 21/3/3 20/75/4
f 3/4/2 2/57/1 4/59/5 5/5/6
f 5/5/6 4/59/5 6/61/7 7/6/8
f 7/6/8 6/61/7 8/63/9 9/7/10
f 9/7/10 8/63/9 10/65/11 11/8/12
f 11/8/12 10/65/11 12/67/13 13/9/14
f 13/9/14 12/67/13 14/69/15 15/10/16
f 15/10/16 14/69/15 16/71/17 17/11/18
f 17/11/18 16/71/17 18/73/19 19/12/20
f 19/12/20 18/73/19 20/75/4 21/3/3
f 23/24/21 22/25/22 24/23/23
f 22/25/22 25/26/24 24/23/23
f 25/26/24 26/27/25 24/23/23
f 26/27/25 27/28/26 24/23/23
f 27/28/26 28/29/27 24/23/23
f 28/29/27 29/30/28 24/23/23
f 29/30/28 30/31/29 24/23/23
f 30/31/29 31/32/30 24/23/23
f 31/32/30 32/33/31 24/23/23
f 32/33/31 23/24/21 24/23/23
f 3/22/2 5/13/6 22/25/22 23/24/21
f 5/13/6 7/14/8 25/26/24 22/25/22
f 7/14/8 9/15/10 26/27/25 25/26/24
f 9/15/10 11/16/12 27/28/26 26/27/25
f 11/16/12 13/17/14 28/29/27 27/28/26
f 13/17/14 15/18/16 29/30/28 28/29/27
f 15/18/16 17/19/18 30/31/29 29/30/28
f 17/19/18 19/20/20 31/32/30 30/31/29
f 19/20/20 21/21/3 32/33/31 31/32/30
f 21/21/3 3/22/2 23/24/21 32/33/31
f 33/44/32 34/34/33 52/43/34 51/54/35
f 34/34/33 33/44/32 35/45/36 36/35/37
f 36/35/37 35/45/36 37/46/38 38/36/39
f 38/36/39 37/46/38 39/47/40 40/37/41
f 40/37/41 39/47/40 41/48/42 42/38/43
f 42/38/43 41/48/42 43/49/44 44/39/45
f 44/39/45 43/49/44 45/50/46 46/40/47
f 46/40/47 45/50/46 47/51/48 48/41/49
f 48/41/49 47/51/48 49/52/50 50/42/51
f 50/42/51 49/52/50 51/54/35 52/43/34
f 35/45/36 33/44/32 1/53/52
f 37/46/38 35/45/36 1/53/52
f 39/47/40 37/46/38 1/53/52
f 41/48/42 39/47/40 1/53/52
f 43/49/44 41/48/42 1/53/52
f 45/50/46 43/49/44 1/53/52
f 47/51/48 45/50/46 1/53/52
f 49/52/50 47/51/48 1/53/52
f 51/54/35 49/52/50 1/53/52
f 33/44/32 51/54/35 1/53/52
f 34/55/33 36/56/37 4/59/5 2/57/1
f 36/56/37 38/58/39 6/61/7 4/59/5
f 38/58/39 40/60/41 8/63/9 6/61/7
f 40/60/41 42/62/43 10/65/11 8/63/9
f 42/62/43 44/64/45 12/67/13 10/65/11
f 44/64/45 46/66/47 14/69/15 12/67/13
f 46/66/47 48/68/49 16/71/17 14/69/15
f 48/68/49 50/70/51 18/73/19 16/71/17
f 50/70/51 52/72/34 20/75/4 18/73/19
f 52/72/34 34/74/33 2/1/1 20/75/4
s 3
f 54/76/53 55/77/54 74/78/55 75/79/56
f 55/77/54 56/80/57 76/81/58 74/78/55
f 73/82/59 89/83/60 60/84/61 53/85/62
f 75/79/56 74/78/55 78/86/63 79/87/64
f 74/78/55 76/81/58 80/88/65 78/86/63
f 60/84/61 89/83/60 82/89/66
f 79/87/64 78/86/63 83/90/67 84/91/68
f 78/86/63 80/88/65 85/92/69 83/90/67
f 85/92/69 80/88/65 86/93/70 87/94/71
f 53/85/62 54/76/53 75/79/56 73/82/59
f 77/95/72 73/82/59 75/79/56 79/87/64
f 81/96/73 77/95/72 79/87/64 84/91/68
f 70/97/74 88/98/75 71/99/76
f 54/100/53 57/101/77 58/102/78 55/103/54
f 55/103/54 58/102/78 59/104/79 56/105/57
f 57/101/77 61/106/80 62/107/81 58/102/78
f 58/102/78 62/107/81 63/108/82 59/104/79
f 88/98/75 64/109/83 72/110/84 71/99/76
f 61/106/80 65/111/85 66/112/86 62/107/81
f 62/107/81 66/112/86 67/113/87 63/108/82
f 67/113/87 69/114/88 68/115/89 63/108/82
f 53/116/62 70/97/74 57/101/77 54/100/53
f 71/99/76 61/106/80 57/101/77 70/97/74
f 72/110/84 65/111/85 61/106/80 71/99/76
f 56/80/57 59/117/79 76/81/58
f 59/117/79 63/118/82 80/88/65 76/81/58
f 72/110/84 64/109/83 82/89/66 81/96/73
f 64/109/83 60/84/61 82/89/66
f 66/112/86 65/111/85 84/91/68 83/90/67
f 67/113/87 66/112/86 83/90/67 85/92/69
f 63/118/82 68/119/89 86/93/70 80/88/65
f 69/114/88 67/113/87 85/92/69 87/94/71
f 65/111/85 72/110/84 81/96/73 84/91/68
f 70/97/74 53/116/62 60/84/61 88/98/75
f 60/84/61 64/109/83 88/98/75
f 73/82/59 77/95/72 89/83/60
f 82/89/66 89/83/60 77/95/72 81/96/73
