# This file uses centimeters as units for non-parametric coordinates.

mtllib Wasabi.mtl
g default
v 0.422367 0.224588 -0.529631
v -0.150741 0.224588 -0.660440
v -0.610338 0.224588 -0.293923
v -0.610338 0.224588 0.293923
v -0.150741 0.224588 0.660440
v 0.422367 0.224588 0.529631
v 0.677424 0.224588 0.000000
v 0.422367 0.390319 -0.529631
v -0.150741 0.390319 -0.660440
v -0.610338 0.390319 -0.293923
v -0.610338 0.390319 0.293923
v -0.150741 0.390319 0.660440
v 0.422367 0.390319 0.529631
v 0.677424 0.390319 0.000000
v 0.338712 0.539638 -0.424731
v -0.120885 0.539638 -0.529631
v -0.489453 0.539638 -0.235708
v -0.489453 0.539638 0.235708
v -0.120885 0.539638 0.529631
v 0.338712 0.539638 0.424731
v 0.543252 0.539638 0.000000
v 0.187971 0.642969 -0.235708
v -0.067086 0.642969 -0.293923
v -0.271626 0.642969 -0.130808
v -0.271626 0.642969 0.130808
v -0.067086 0.642969 0.293923
v 0.187971 0.642969 0.235708
v 0.301482 0.642969 0.000000
v 0.000000 0.679848 0.000000
v 0.866025 0.044519 -0.500000
v 0.500000 0.044519 -0.866025
v 0.000000 0.044519 -1.000000
v -0.500000 0.044519 -0.866025
v -0.866025 0.044519 -0.500000
v -1.000000 0.044519 0.000000
v -0.866025 0.044519 0.500000
v -0.500000 0.044519 0.866025
v 0.000000 0.044519 1.000000
v 0.500000 0.044519 0.866025
v 0.866025 0.044519 0.500000
v 1.000000 0.044519 0.000000
v 0.000000 0.044519 0.000000
v 0.000000 0.262804 0.000000
v 1.090555 0.449560 -0.629632
v 1.083419 0.581563 -0.625512
v 0.969977 0.620019 -0.560016
v 0.629632 0.449560 -1.090555
v 0.625512 0.581563 -1.083419
v 0.560016 0.620019 -0.969977
v 0.000000 0.449560 -1.259264
v 0.000000 0.581563 -1.251024
v 0.000000 0.620019 -1.120033
v -0.629632 0.449560 -1.090555
v -0.625512 0.581563 -1.083419
v -0.560016 0.620019 -0.969977
v -1.090555 0.449560 -0.629632
v -1.083419 0.581563 -0.625512
v -0.969977 0.620019 -0.560016
v -1.259264 0.449560 0.000000
v -1.251024 0.581563 0.000000
v -1.120033 0.620019 0.000000
v -1.090555 0.449560 0.629632
v -1.083419 0.581563 0.625512
v -0.969977 0.620019 0.560016
v -0.629632 0.449560 1.090555
v -0.625512 0.581563 1.083419
v -0.560016 0.620019 0.969977
v 0.000000 0.449560 1.259264
v 0.000000 0.581563 1.251024
v 0.000000 0.620019 1.120033
v 0.629632 0.449560 1.090555
v 0.625512 0.581563 1.083419
v 0.560016 0.620019 0.969977
v 1.090555 0.449560 0.629632
v 1.083419 0.581563 0.625512
v 0.969977 0.620019 0.560016
v 1.259264 0.449560 0.000000
v 1.251024 0.581563 0.000000
v 1.120033 0.620019 0.000000
v 0.375583 0.274541 -0.650530
v 0.650530 0.274541 -0.375583
v 0.751167 0.274541 0.000000
v 0.650530 0.274541 0.375583
v 0.375583 0.274541 0.650530
v 0.000000 0.274541 0.751167
v -0.375583 0.274541 0.650530
v -0.650530 0.274541 0.375583
v -0.751167 0.274541 0.000000
v -0.650530 0.274541 -0.375583
v -0.375583 0.274541 -0.650530
v 0.000000 0.274541 -0.751167
vt 0.714689 0.566616
vt 0.861904 0.521607
vt 0.857881 0.552687
vt 0.736480 0.589139
vt 0.988881 0.608645
vt 0.962073 0.624876
vt 1.000000 0.762187
vt 0.970595 0.751348
vt 0.886887 0.866611
vt 0.877029 0.836863
vt 0.734723 0.843281
vt 0.751835 0.817026
vt 0.658091 0.709773
vt 0.689287 0.706780
vt 0.852320 0.591346
vt 0.763238 0.617590
vt 0.928381 0.644632
vt 0.934143 0.737323
vt 0.865267 0.799619
vt 0.773620 0.784609
vt 0.728214 0.703600
vt 0.844521 0.640687
vt 0.796951 0.654452
vt 0.884942 0.669297
vt 0.887775 0.718738
vt 0.850888 0.751779
vt 0.802058 0.743539
vt 0.778054 0.700225
vt 0.835027 0.696960
vt 0.559356 0.512035
vt 0.630746 0.583425
vt 0.461835 0.680946
vt 0.461835 0.485904
vt 0.364314 0.512035
vt 0.292924 0.583425
vt 0.266793 0.680946
vt 0.292924 0.778466
vt 0.364314 0.849857
vt 0.461835 0.875987
vt 0.559356 0.849857
vt 0.630746 0.778466
vt 0.656876 0.680946
vt 0.538034 0.000003
vt 0.565784 0.000003
vt 0.565784 0.299723
vt 0.538034 0.299723
vt 0.593534 0.000003
vt 0.593534 0.299725
vt 0.621284 0.000003
vt 0.621284 0.299725
vt 0.649034 0.000003
vt 0.649034 0.299723
vt 0.676785 0.000003
vt 0.676785 0.299725
vt 0.704535 0.000003
vt 0.704535 0.299725
vt 0.732285 0.000003
vt 0.732285 0.299723
vt 0.760035 0.000003
vt 0.760035 0.299725
vt 0.787785 0.000003
vt 0.787785 0.299725
vt 0.815536 0.000003
vt 0.815536 0.299723
vt 0.843286 0.000003
vt 0.843286 0.299725
vt 0.871036 0.000003
vt 0.871036 0.299725
vt 0.445011 0.369061
vt 0.369061 0.445011
vt 0.317186 0.355161
vt 0.355161 0.317186
vt 0.265311 0.472812
vt 0.265311 0.369061
vt 0.161560 0.445011
vt 0.213436 0.355161
vt 0.085611 0.369061
vt 0.175461 0.317186
vt 0.057810 0.265311
vt 0.161560 0.265311
vt 0.085611 0.161560
vt 0.175461 0.213436
vt 0.161560 0.085610
vt 0.213436 0.175461
vt 0.265311 0.057810
vt 0.265311 0.161560
vt 0.369061 0.085610
vt 0.317186 0.175461
vt 0.445011 0.161560
vt 0.355161 0.213436
vt 0.472812 0.265311
vt 0.369061 0.265311
vt 0.871036 0.499507
vt 0.843286 0.499507
vt 0.495077 0.397966
vt 0.530622 0.265311
vt 0.397966 0.495077
vt 0.538034 0.499507
vt 0.565784 0.499507
vt 0.265311 0.530622
vt 0.593534 0.499507
vt 0.132655 0.495077
vt 0.621284 0.499507
vt 0.035545 0.397966
vt 0.649034 0.499507
vt 0.000000 0.265311
vt 0.676785 0.499507
vt 0.035545 0.132655
vt 0.704535 0.499507
vt 0.132655 0.035545
vt 0.732285 0.499507
vt 0.265311 -0.000000
vt 0.760035 0.499507
vt 0.397966 0.035545
vt 0.787785 0.499507
vt 0.495077 0.132655
vt 0.815536 0.499507
vt 0.265311 0.265311
vn 0.623490 0.000000 -0.781832
vn -0.222521 0.000000 -0.974928
vn -0.209556 0.336352 -0.918125
vn 0.587163 0.336352 -0.736279
vn -0.900969 0.000000 -0.433884
vn -0.848475 0.336352 -0.408604
vn -0.900969 0.000000 0.433884
vn -0.848475 0.336352 0.408604
vn -0.222521 0.000000 0.974928
vn -0.209556 0.336352 0.918125
vn 0.623490 0.000000 0.781831
vn 0.587163 0.336352 0.736279
vn 1.000000 0.000000 0.000000
vn 0.941736 0.336352 0.000000
vn -0.140414 0.775771 -0.615193
vn 0.393431 0.775771 -0.493347
vn -0.568524 0.775771 -0.273787
vn -0.568524 0.775771 0.273787
vn -0.140414 0.775771 0.615193
vn 0.393431 0.775771 0.493347
vn 0.631014 0.775771 0.000000
vn -0.076450 0.939130 -0.334947
vn 0.214207 0.939130 -0.268607
vn -0.309538 0.939130 -0.149066
vn -0.309538 0.939130 0.149066
vn -0.076450 0.939130 0.334947
vn 0.214207 0.939130 0.268607
vn 0.343561 0.939130 0.000000
vn -0.000000 1.000000 0.000000
vn 0.280418 -0.827926 -0.485699
vn 0.485699 -0.827926 -0.280419
vn 0.000000 -1.000000 0.000000
vn -0.000000 -0.827926 -0.560837
vn -0.280418 -0.827926 -0.485699
vn -0.485699 -0.827926 -0.280419
vn -0.560837 -0.827926 0.000000
vn -0.485699 -0.827926 0.280419
vn -0.280418 -0.827926 0.485699
vn 0.000000 -0.827926 0.560837
vn 0.280418 -0.827926 0.485699
vn 0.485699 -0.827926 0.280419
vn 0.560837 -0.827926 0.000000
vn 0.457365 -0.404065 -0.792180
vn 0.792180 -0.404065 -0.457365
vn -0.000000 -0.404065 -0.914730
vn -0.457365 -0.404065 -0.792180
vn -0.792180 -0.404065 -0.457365
vn -0.914731 -0.404065 0.000000
vn -0.792180 -0.404065 0.457365
vn -0.457365 -0.404065 0.792180
vn 0.000000 -0.404065 0.914730
vn 0.457365 -0.404065 0.792180
vn 0.792180 -0.404065 0.457365
vn 0.914731 -0.404065 -0.000000
vn -0.373687 0.902115 0.215748
vn -0.215748 0.902115 0.373687
vn -0.253583 0.861848 0.439219
vn -0.439219 0.861848 0.253583
vn 0.000000 0.902115 0.431497
vn 0.000000 0.861848 0.507166
vn 0.215748 0.902115 0.373687
vn 0.253583 0.861848 0.439219
vn 0.373687 0.902115 0.215748
vn 0.439219 0.861848 0.253583
vn 0.431497 0.902115 0.000000
vn 0.507166 0.861848 0.000000
vn 0.373687 0.902115 -0.215748
vn 0.439219 0.861848 -0.253583
vn 0.215748 0.902115 -0.373687
vn 0.253583 0.861848 -0.439219
vn 0.000000 0.902115 -0.431497
vn 0.000000 0.861848 -0.507166
vn -0.215748 0.902115 -0.373687
vn -0.253583 0.861848 -0.439219
vn -0.373687 0.902115 -0.215748
vn -0.439219 0.861848 -0.253583
vn -0.431497 0.902115 -0.000000
vn -0.507166 0.861848 -0.000000
vn 0.714421 0.565217 -0.412471
vn 0.824942 0.565217 0.000000
vn 0.412471 0.565217 -0.714421
vn -0.000000 0.565217 -0.824942
vn -0.412471 0.565217 -0.714421
vn -0.714421 0.565217 -0.412471
vn -0.824942 0.565217 0.000000
vn -0.714421 0.565217 0.412471
vn -0.412471 0.565217 0.714421
vn 0.000000 0.565217 0.824942
vn 0.412471 0.565217 0.714421
vn 0.714421 0.565217 0.412471
vn -0.000000 1.000000 0.000000
s 1
g pSphere2
usemtl initialShadingGroup
f 1/1/1 2/2/2 9/3/3 8/4/4
f 2/2/2 3/5/5 10/6/6 9/3/3
f 3/5/5 4/7/7 11/8/8 10/6/6
f 4/7/7 5/9/9 12/10/10 11/8/8
f 5/9/9 6/11/11 13/12/12 12/10/10
f 6/11/11 7/13/13 14/14/14 13/12/12
f 7/13/13 1/1/1 8/4/4 14/14/14
f 8/4/4 9/3/3 16/15/15 15/16/16
f 9/3/3 10/6/6 17/17/17 16/15/15
f 10/6/6 11/8/8 18/18/18 17/17/17
f 11/8/8 12/10/10 19/19/19 18/18/18
f 12/10/10 13/12/12 20/20/20 19/19/19
f 13/12/12 14/14/14 21/21/21 20/20/20
f 14/14/14 8/4/4 15/16/16 21/21/21
f 15/16/16 16/15/15 23/22/22 22/23/23
f 16/15/15 17/17/17 24/24/24 23/22/22
f 17/17/17 18/18/18 25/25/25 24/24/24
f 18/18/18 19/19/19 26/26/26 25/25/25
f 19/19/19 20/20/20 27/27/27 26/26/26
f 20/20/20 21/21/21 28/28/28 27/27/27
f 21/21/21 15/16/16 22/23/23 28/28/28
f 22/23/23 23/22/22 29/29/29
f 23/22/22 24/24/24 29/29/29
f 24/24/24 25/25/25 29/29/29
f 25/25/25 26/26/26 29/29/29
f 26/26/26 27/27/27 29/29/29
f 27/27/27 28/28/28 29/29/29
f 28/28/28 22/23/23 29/29/29
s 2
f 31/30/30 30/31/31 42/32/32
f 32/33/33 31/30/30 42/32/32
f 33/34/34 32/33/33 42/32/32
f 34/35/35 33/34/34 42/32/32
f 35/36/36 34/35/35 42/32/32
f 36/37/37 35/36/36 42/32/32
f 37/38/38 36/37/37 42/32/32
f 38/39/39 37/38/38 42/32/32
f 39/40/40 38/39/39 42/32/32
f 40/41/41 39/40/40 42/32/32
f 41/42/42 40/41/41 42/32/32
f 30/31/31 41/42/42 42/32/32
f 30/43/31 31/44/30 47/45/43 44/46/44
f 31/44/30 32/47/33 50/48/45 47/45/43
f 32/47/33 33/49/34 53/50/46 50/48/45
f 33/49/34 34/51/35 56/52/47 53/50/46
f 34/51/35 35/53/36 59/54/48 56/52/47
f 35/53/36 36/55/37 62/56/49 59/54/48
f 36/55/37 37/57/38 65/58/50 62/56/49
f 37/57/38 38/59/39 68/60/51 65/58/50
f 38/59/39 39/61/40 71/62/52 68/60/51
f 39/61/40 40/63/41 74/64/53 71/62/52
f 40/63/41 41/65/42 77/66/54 74/64/53
f 41/65/42 30/67/31 44/68/44 77/66/54
f 46/69/55 49/70/56 80/71/57 81/72/58
f 49/70/56 52/73/59 91/74/60 80/71/57
f 52/73/59 55/75/61 90/76/62 91/74/60
f 55/75/61 58/77/63 89/78/64 90/76/62
f 58/77/63 61/79/65 88/80/66 89/78/64
f 61/79/65 64/81/67 87/82/68 88/80/66
f 64/81/67 67/83/69 86/84/70 87/82/68
f 67/83/69 70/85/71 85/86/72 86/84/70
f 70/85/71 73/87/73 84/88/74 85/86/72
f 73/87/73 76/89/75 83/90/76 84/88/74
f 76/89/75 79/91/77 82/92/78 83/90/76
f 79/91/77 46/69/55 81/72/58 82/92/78
f 44/68/44 45/93/79 78/94/80 77/66/54
f 45/95/79 46/69/55 79/91/77 78/96/80
f 46/69/55 45/95/79 48/97/81 49/70/56
f 45/98/79 44/46/44 47/45/43 48/99/81
f 49/70/56 48/97/81 51/100/82 52/73/59
f 48/99/81 47/45/43 50/48/45 51/101/82
f 52/73/59 51/100/82 54/102/83 55/75/61
f 51/101/82 50/48/45 53/50/46 54/103/83
f 55/75/61 54/102/83 57/104/84 58/77/63
f 54/103/83 53/50/46 56/52/47 57/105/84
f 58/77/63 57/104/84 60/106/85 61/79/65
f 57/105/84 56/52/47 59/54/48 60/107/85
f 61/79/65 60/106/85 63/108/86 64/81/67
f 60/107/85 59/54/48 62/56/49 63/109/86
f 64/81/67 63/108/86 66/110/87 67/83/69
f 63/109/86 62/56/49 65/58/50 66/111/87
f 67/83/69 66/110/87 69/112/88 70/85/71
f 66/111/87 65/58/50 68/60/51 69/113/88
f 70/85/71 69/112/88 72/114/89 73/87/73
f 69/113/88 68/60/51 71/62/52 72/115/89
f 73/87/73 72/114/89 75/116/90 76/89/75
f 72/115/89 71/62/52 74/64/53 75/117/90
f 76/89/75 75/116/90 78/96/80 79/91/77
f 75/117/90 74/64/53 77/66/54 78/94/80
f 81/72/58 80/71/57 43/118/91
f 82/92/78 81/72/58 43/118/91
f 83/90/76 82/92/78 43/118/91
f 84/88/74 83/90/76 43/118/91
f 85/86/72 84/88/74 43/118/91
f 86/84/70 85/86/72 43/118/91
f 87/82/68 86/84/70 43/118/91
f 88/80/66 87/82/68 43/118/91
f 89/78/64 88/80/66 43/118/91
f 90/76/62 89/78/64 43/118/91
f 91/74/60 90/76/62 43/118/91
f 80/71/57 91/74/60 43/118/91
